<svg xmlns="http://www.w3.org/2000/svg" viewBox="0 0 1200 675" role="img" aria-label="Preview of dimensioned concrete cylinder specimen">
  <rect width="1200" height="675" fill="#eef2f6"/>
  <rect x="80" y="72" width="1040" height="531" rx="28" fill="#ffffff" stroke="#d7dde5"/>
  <text x="128" y="139" font-family="system-ui,sans-serif" font-size="34" font-weight="700" fill="#0f172a">Concrete specimen geometry</text>
  <text x="128" y="177" font-family="system-ui,sans-serif" font-size="18" fill="#64748b">Default state · cylinder · 150 mm nominal diameter × 300 mm nominal height</text>
  <g transform="translate(270 202)">
    <rect x="0" y="36" width="300" height="236" fill="#cbd0d4" stroke="#475569" stroke-width="3"/>
    <ellipse cx="150" cy="36" rx="150" ry="36" fill="#dde1e4" stroke="#475569" stroke-width="3"/>
    <path d="M0 272 A150 36 0 0 0 300 272" fill="none" stroke="#64748b" stroke-width="3"/>
    <g fill="#334155" opacity=".22">
      <circle cx="42" cy="83" r="7"/><circle cx="86" cy="121" r="5"/><circle cx="144" cy="95" r="8"/><circle cx="219" cy="72" r="5"/>
      <circle cx="262" cy="111" r="7"/><circle cx="54" cy="171" r="5"/><circle cx="118" cy="155" r="8"/><circle cx="182" cy="184" r="6"/>
      <circle cx="252" cy="167" r="5"/><circle cx="83" cy="225" r="7"/><circle cx="156" cy="236" r="5"/><circle cx="231" cy="222" r="8"/>
    </g>
    <path d="M38 64 C58 114 42 205 64 246" fill="none" stroke="#fff" stroke-width="12" stroke-linecap="round" opacity=".32"/>
    <g stroke="#334155" stroke-width="2" fill="none">
      <line x1="0" y1="-35" x2="300" y2="-35"/><line x1="0" y1="-45" x2="0" y2="-25"/><line x1="300" y1="-45" x2="300" y2="-25"/>
      <line x1="360" y1="0" x2="360" y2="308"/><line x1="349" y1="0" x2="371" y2="0"/><line x1="349" y1="308" x2="371" y2="308"/>
    </g>
    <text x="150" y="-52" text-anchor="middle" font-family="system-ui,sans-serif" font-size="18" font-weight="650" fill="#0f172a">Ø 150 mm nominal</text>
    <text x="388" y="154" transform="rotate(90 388 154)" text-anchor="middle" font-family="system-ui,sans-serif" font-size="18" font-weight="650" fill="#0f172a">300 mm nominal</text>
  </g>
  <g transform="translate(744 245)">
    <text x="0" y="0" font-family="system-ui,sans-serif" font-size="18" font-weight="700" fill="#334155">Geometry only</text>
    <text x="0" y="37" font-family="system-ui,sans-serif" font-size="17" fill="#475569">Volume: 5.301 L</text>
    <text x="0" y="68" font-family="system-ui,sans-serif" font-size="17" fill="#475569">Surface area: 0.1767 m²</text>
    <text x="0" y="122" font-family="system-ui,sans-serif" font-size="15" fill="#64748b">Surface marks are illustrative.</text>
    <text x="0" y="149" font-family="system-ui,sans-serif" font-size="15" fill="#64748b">No strength, mix design, or code claim.</text>
  </g>
  <text x="128" y="557" font-family="system-ui,sans-serif" font-size="15" fill="#64748b">Static reference preview of the component default state; browser execution remains a separate review gate.</text>
</svg>
